<svg width="512" height="512" viewBox="0 0 512 512" xmlns="http://www.w3.org/2000/svg">
  <defs>
    <linearGradient id="orangeGradient" x1="0%" y1="0%" x2="100%" y2="100%">
      <stop offset="0%" style="stop-color:#FFB366;stop-opacity:1" />
      <stop offset="100%" style="stop-color:#FF8C00;stop-opacity:1" />
    </linearGradient>
    <linearGradient id="darkGradient" x1="0%" y1="0%" x2="100%" y2="100%">
      <stop offset="0%" style="stop-color:#2D3748;stop-opacity:1" />
      <stop offset="100%" style="stop-color:#1A202C;stop-opacity:1" />
    </linearGradient>
  </defs>
  
  <!-- Dark background -->
  <rect width="512" height="512" fill="url(#darkGradient)"/>
  
  <!-- Main SMS bubble shape - modern geometric style -->
  <g transform="translate(80, 120)">
    <!-- Outer bubble shape -->
    <path d="M0 40 L40 0 L280 0 L320 40 L320 160 L280 200 L80 200 L40 240 L40 200 L0 160 Z" 
          fill="url(#orangeGradient)" 
          stroke="none"/>
    
    <!-- Inner dark area for contrast -->
    <path d="M40 60 L60 40 L260 40 L280 60 L280 140 L260 160 L100 160 L80 180 L80 160 L40 140 Z" 
          fill="url(#darkGradient)" 
          opacity="0.8"/>
    
    <!-- Three dots inside bubble -->
    <circle cx="140" cy="100" r="12" fill="url(#orangeGradient)"/>
    <circle cx="180" cy="100" r="12" fill="url(#orangeGradient)"/>
    <circle cx="220" cy="100" r="12" fill="url(#orangeGradient)"/>
  </g>
</svg> 