<svg width="1024" height="1024" viewBox="0 0 1024 1024" xmlns="http://www.w3.org/2000/svg">
  <defs>
    <linearGradient id="darkGradient" x1="0%" y1="0%" x2="100%" y2="100%">
      <stop offset="0%" style="stop-color:#2D3748;stop-opacity:1" />
      <stop offset="50%" style="stop-color:#1A202C;stop-opacity:1" />
      <stop offset="100%" style="stop-color:#0F1419;stop-opacity:1" />
    </linearGradient>
    <linearGradient id="orangeGradient" x1="0%" y1="0%" x2="100%" y2="100%">
      <stop offset="0%" style="stop-color:#FFB366;stop-opacity:1" />
      <stop offset="100%" style="stop-color:#FF8C00;stop-opacity:1" />
    </linearGradient>
    <filter id="glow" x="-50%" y="-50%" width="200%" height="200%">
      <feDropShadow dx="0" dy="0" stdDeviation="30" flood-color="#FF8C00" flood-opacity="0.4"/>
    </filter>
  </defs>
  
  <!-- Dark background -->
  <rect width="1024" height="1024" fill="url(#darkGradient)"/>
  
  <!-- Subtle geometric pattern -->
  <g opacity="0.03">
    <rect x="0" y="0" width="100" height="100" fill="url(#orangeGradient)"/>
    <rect x="924" y="0" width="100" height="100" fill="url(#orangeGradient)"/>
    <rect x="0" y="924" width="100" height="100" fill="url(#orangeGradient)"/>
    <rect x="924" y="924" width="100" height="100" fill="url(#orangeGradient)"/>
  </g>
  
  <!-- Main icon centered -->
  <g transform="translate(312, 312)">
    <!-- Glow effect -->
    <g filter="url(#glow)">
      <!-- Main SMS bubble shape -->
      <path d="M0 80 L80 0 L320 0 L400 80 L400 240 L320 320 L120 320 L80 360 L80 320 L0 240 Z" 
            fill="url(#orangeGradient)" 
            stroke="none"/>
    </g>
    
    <!-- Inner dark area for contrast -->
    <path d="M60 120 L120 60 L280 60 L340 120 L340 200 L280 260 L140 260 L100 300 L100 260 L60 200 Z" 
          fill="url(#darkGradient)" 
          opacity="0.7"/>
    
    <!-- Three dots inside bubble -->
    <circle cx="160" cy="160" r="18" fill="url(#orangeGradient)"/>
    <circle cx="200" cy="160" r="18" fill="url(#orangeGradient)"/>
    <circle cx="240" cy="160" r="18" fill="url(#orangeGradient)"/>
  </g>
  
  <!-- Subtle corner accents -->
  <g opacity="0.1">
    <path d="M0 0 L100 0 L0 100 Z" fill="url(#orangeGradient)"/>
    <path d="M1024 0 L924 0 L1024 100 Z" fill="url(#orangeGradient)"/>
    <path d="M0 1024 L100 1024 L0 924 Z" fill="url(#orangeGradient)"/>
    <path d="M1024 1024 L924 1024 L1024 924 Z" fill="url(#orangeGradient)"/>
  </g>
</svg> 